<svg width="70" height="70" viewBox="0 0 70 70" fill="none" xmlns="http://www.w3.org/2000/svg">
<path d="M19.8948 29.3344C19.8948 30.1875 19.9866 30.8793 20.1491 31.3852C20.3328 31.8916 20.5636 32.445 20.8857 33.0433C20.9989 33.227 21.0459 33.4108 21.0459 33.5732C21.0459 33.8018 20.907 34.0326 20.6084 34.2628L19.1576 35.2308C18.9503 35.3675 18.743 35.438 18.5598 35.438C18.3291 35.438 18.0983 35.3226 17.8675 35.1154C17.5578 34.7812 17.2802 34.4187 17.0384 34.0326C16.7822 33.5895 16.5443 33.1362 16.3253 32.6736C14.5305 34.7927 12.273 35.8526 9.555 35.8526C7.6218 35.8526 6.07961 35.2991 4.94976 34.1944C3.82156 33.0881 3.2468 31.6143 3.2468 29.7724C3.2468 27.8157 3.93695 26.2265 5.34297 25.0305C6.74625 23.8317 8.61109 23.2334 10.9845 23.2334C11.7666 23.2334 12.5716 23.3018 13.4236 23.4172C14.2767 23.5326 15.1523 23.7163 16.0732 23.9236V22.2425C16.0732 20.4925 15.7035 19.273 14.9904 18.5598C14.2521 17.8462 13.0091 17.5 11.2361 17.5C10.4305 17.5 9.60203 17.5919 8.74945 17.7991C7.90297 18.0008 7.07198 18.2627 6.26281 18.5828C5.89312 18.743 5.6175 18.8349 5.45726 18.8819C5.29539 18.9268 5.18 18.9503 5.08812 18.9503C4.76547 18.9503 4.60523 18.7195 4.60523 18.2372V17.109C4.60523 16.7393 4.65008 16.4637 4.76547 16.3018C4.88031 16.1416 5.08812 15.9813 5.41078 15.8189C6.21578 15.4044 7.18375 15.0587 8.3114 14.7826C9.43961 14.4834 10.6378 14.3451 11.9044 14.3451C14.6431 14.3451 16.6469 14.9663 17.9375 16.2099C19.2041 17.453 19.8472 19.3413 19.8472 21.875V29.3344H19.8948ZM10.5465 32.836C11.305 32.836 12.0887 32.6971 12.9177 32.4215C13.7468 32.1437 14.4834 31.6378 15.1052 30.9477C15.4727 30.5102 15.7505 30.0267 15.8873 29.4738C16.0262 28.9204 16.118 28.2543 16.118 27.4695V26.5043C15.4205 26.3329 14.7137 26.2016 14.0011 26.1111C13.2826 26.0205 12.5591 25.9748 11.8349 25.9744C10.2927 25.9744 9.16453 26.2735 8.40383 26.8953C7.64531 27.5166 7.27617 28.3905 7.27617 29.5422C7.27617 30.625 7.5518 31.4305 8.1282 31.9834C8.68164 32.5582 9.48719 32.836 10.5465 32.836ZM29.0358 35.3226C28.6212 35.3226 28.3456 35.2543 28.1619 35.0919C27.9759 34.953 27.8157 34.6325 27.6768 34.195L22.266 16.3953C22.1293 15.9343 22.0582 15.6352 22.0582 15.4727C22.0582 15.1052 22.2425 14.8985 22.6122 14.8985H24.868C25.3055 14.8985 25.6047 14.9663 25.7671 15.1287C25.9509 15.2655 26.0898 15.5881 26.2265 16.0256L30.0951 31.2703L33.688 16.0262C33.8018 15.5668 33.9407 15.266 34.1239 15.1293C34.3098 14.9898 34.6325 14.898 35.047 14.898H36.8884C37.3259 14.898 37.6255 14.9663 37.8093 15.1287C37.993 15.2655 38.1555 15.5881 38.2468 16.0256L41.8852 31.4541L45.8691 16.0262C46.0059 15.5668 46.1683 15.266 46.3285 15.1293C46.5123 14.9898 46.8136 14.898 47.2276 14.898H49.368C49.7377 14.898 49.945 15.0817 49.945 15.4727C49.945 15.5876 49.9215 15.7035 49.898 15.8424C49.8745 15.9813 49.8296 16.1651 49.7377 16.4166L44.188 34.218C44.0491 34.6773 43.8889 34.9765 43.703 35.1148C43.5192 35.2543 43.2201 35.3462 42.8291 35.3462H40.8494C40.4113 35.3462 40.1122 35.2751 39.9284 35.1154C39.7425 34.953 39.5823 34.6538 39.4904 34.1944L35.9209 19.3413L32.3745 34.1709C32.2596 34.6325 32.1229 34.9316 31.937 35.0919C31.7527 35.2543 31.4305 35.3226 31.016 35.3226H29.0358ZM58.6245 35.9444C57.4284 35.9444 56.2297 35.8055 55.0785 35.5299C53.9268 35.2543 53.0299 34.953 52.4316 34.609C52.062 34.4017 51.8098 34.1715 51.718 33.9637C51.6272 33.7606 51.5799 33.5408 51.5791 33.3184V32.1437C51.5791 31.6613 51.7628 31.4305 52.1095 31.4305C52.2463 31.4305 52.3846 31.4541 52.5235 31.5011C52.6602 31.5459 52.8675 31.6378 53.0977 31.7297C53.9117 32.0872 54.7612 32.3577 55.632 32.5369C56.5523 32.7206 57.4498 32.8125 58.3723 32.8125C59.8232 32.8125 60.9509 32.5582 61.7329 32.0523C62.5166 31.5459 62.9311 30.8087 62.9311 29.8648C62.9311 29.2195 62.7238 28.6918 62.3098 28.2537C61.8953 27.8162 61.1111 27.4247 59.9834 27.0555L56.6442 26.0192C54.9631 25.4893 53.7195 24.7078 52.9616 23.6715C52.2014 22.657 51.8098 21.5288 51.8098 20.3328C51.8098 19.3648 52.0177 18.5128 52.4316 17.7756C52.8427 17.0348 53.408 16.3909 54.0892 15.8873C54.7794 15.3595 55.5636 14.9663 56.4845 14.6907C57.4049 14.4151 58.3723 14.2997 59.3852 14.2997C59.8916 14.2997 60.4209 14.3232 60.9273 14.3916C61.4573 14.4599 61.9402 14.5518 62.4247 14.6437C62.8841 14.7591 63.3221 14.8744 63.7366 15.0134C64.1512 15.1523 64.4738 15.289 64.7046 15.4279C65.0273 15.6116 65.2575 15.7954 65.3942 16.0021C65.5331 16.188 65.6015 16.4407 65.6015 16.7628V17.8456C65.6015 18.3291 65.4177 18.5828 65.0716 18.5828C64.8878 18.5828 64.5887 18.4893 64.1982 18.3055C62.8841 17.7073 61.4102 17.4081 59.7762 17.4081C58.4642 17.4081 57.4284 17.6154 56.7148 18.0534C55.9989 18.4893 55.632 19.1581 55.632 20.102C55.632 20.7473 55.8622 21.3002 56.3216 21.7361C56.7831 22.1736 57.6357 22.6122 58.8552 23.0027L62.1255 24.039C63.7837 24.5689 64.9802 25.3055 65.6934 26.25C66.407 27.1944 66.7532 28.2773 66.7532 29.4738C66.7532 30.4648 66.5454 31.3622 66.1549 32.1437C65.7404 32.9279 65.187 33.618 64.4738 34.1709C63.7602 34.7457 62.9076 35.1602 61.9188 35.4616C60.8825 35.782 59.7997 35.9444 58.6245 35.9444Z" fill="white"/>
<path d="M64.5312 40.1122C62.1075 40.1466 59.2462 40.6875 57.0823 42.2078C56.4134 42.6907 56.5288 43.3355 57.266 43.2436C59.7313 42.9444 65.1629 42.2997 66.1309 43.5427C67.0988 44.7623 65.0502 49.8974 64.1277 52.1779C63.852 52.8669 64.4503 53.1453 65.0716 52.6154C69.1239 49.2078 70.1837 42.0924 69.3547 41.0561C68.9407 40.5502 66.955 40.0772 64.5312 40.1122ZM0.891401 41.4854C0.384448 41.5488 0.154761 42.1613 0.690151 42.6453C9.71796 50.7948 21.6677 55.7003 34.9316 55.7003C44.3953 55.7003 55.4012 52.7308 62.9759 47.1362C64.219 46.2131 63.1384 44.8098 61.8712 45.3841C53.3761 48.977 44.141 50.727 35.7372 50.727C23.2805 50.727 11.2372 47.2965 1.47382 41.6309C1.26054 41.5045 1.06093 41.4646 0.891948 41.4854H0.891401Z" fill="#FF9900"/>
</svg>
