<svg xmlns="http://www.w3.org/2000/svg" width="70" height="70" fill="none" xmlns:v="https://vecta.io/nano"><circle cx="35" cy="35" r="35" fill="#fff"/><path d="M54.584 45.763c-1.425.362-2.306.016-3.097-1.172l-5.625-7.781-.812-1.078-6.569 8.884c-.75 1.069-1.538 1.534-2.937 1.156l8.413-11.291-7.831-10.197c1.347-.263 2.278-.128 3.103 1.078l5.834 7.878 5.875-7.847c.753-1.069 1.563-1.475 2.916-1.081l-3.037 4.025-4.113 5.356c-.503.625-.422 1.031.028 1.622l7.853 10.447zM15.416 34.294l.688-3.384c1.875-6.697 9.563-9.481 14.844-5.331 3.094 2.434 3.862 5.866 3.709 9.734H17.219c-.263 6.941 4.734 11.131 11.103 8.994 2.234-.75 3.55-2.5 4.209-4.687.334-1.097.888-1.269 1.919-.956-.528 2.737-1.725 5.025-4.225 6.456-3.75 2.144-9.103 1.45-11.919-1.528-1.663-1.75-2.369-3.928-2.681-6.281-.047-.375-.144-.744-.219-1.116l.009-1.9zm1.834-.466h15.759c-.103-5.019-3.228-8.584-7.5-8.616-4.687-.037-8.056 3.444-8.259 8.616z" fill="#000"/></svg>