<svg width="36" height="38" viewBox="0 0 36 38" fill="none" xmlns="http://www.w3.org/2000/svg">
<path d="M12 26.3843H24C24.425 26.3843 24.7815 26.2382 25.0695 25.9462C25.3575 25.6542 25.501 25.2932 25.5 24.8632C25.499 24.4333 25.355 24.0723 25.068 23.7802C24.781 23.4882 24.425 23.3422 24 23.3422H12C11.575 23.3422 11.219 23.4882 10.932 23.7802C10.645 24.0723 10.501 24.4333 10.5 24.8632C10.499 25.2932 10.643 25.6547 10.932 25.9477C11.221 26.2408 11.577 26.3863 12 26.3843ZM16.5 15.9651L15.15 14.6341C14.875 14.3553 14.5315 14.2158 14.1195 14.2158C13.7075 14.2158 13.351 14.368 13.05 14.6722C12.775 14.951 12.6375 15.3059 12.6375 15.7369C12.6375 16.1679 12.775 16.5228 13.05 16.8016L16.95 20.7564C17.25 21.0606 17.6 21.2127 18 21.2127C18.4 21.2127 18.75 21.0606 19.05 20.7564L22.95 16.8016C23.225 16.5228 23.3685 16.1745 23.3805 15.7567C23.3925 15.3389 23.249 14.9774 22.95 14.6722C22.675 14.3933 22.3315 14.2473 21.9195 14.2341C21.5075 14.2209 21.151 14.3543 20.85 14.6341L19.5 15.9651V11.1737C19.5 10.7428 19.356 10.3818 19.068 10.0908C18.78 9.79973 18.424 9.65371 18 9.65269C17.576 9.65168 17.22 9.7977 16.932 10.0908C16.644 10.3838 16.5 10.7448 16.5 11.1737V15.9651ZM18 33.9895C15.925 33.9895 13.975 33.59 12.15 32.7909C10.325 31.9919 8.7375 30.9084 7.3875 29.5405C6.0375 28.1725 4.969 26.5627 4.182 24.7111C3.395 22.8595 3.001 20.8821 3 18.779C2.999 16.6759 3.393 14.6985 4.182 12.8469C4.971 10.9953 6.0395 9.38549 7.3875 8.01756C8.7355 6.64963 10.323 5.56613 12.15 4.76707C13.977 3.96801 15.927 3.56848 18 3.56848C20.073 3.56848 22.023 3.96801 23.85 4.76707C25.677 5.56613 27.2645 6.64963 28.6125 8.01756C29.9605 9.38549 31.0295 10.9953 31.8195 12.8469C32.6095 14.6985 33.003 16.6759 33 18.779C32.997 20.8821 32.603 22.8595 31.818 24.7111C31.033 26.5627 29.9645 28.1725 28.6125 29.5405C27.2605 30.9084 25.673 31.9924 23.85 32.7925C22.027 33.5925 20.077 33.9916 18 33.9895ZM18 30.9474C21.35 30.9474 24.1875 29.7686 26.5125 27.411C28.8375 25.0533 30 22.176 30 18.779C30 15.382 28.8375 12.5047 26.5125 10.147C24.1875 7.7894 21.35 6.61059 18 6.61059C14.65 6.61059 11.8125 7.7894 9.4875 10.147C7.1625 12.5047 6 15.382 6 18.779C6 22.176 7.1625 25.0533 9.4875 27.411C11.8125 29.7686 14.65 30.9474 18 30.9474Z" fill="white"/>
</svg>
