<svg width="41" height="42" viewBox="0 0 41 42" fill="none" xmlns="http://www.w3.org/2000/svg">
<path d="M20.241 4.12268C18.0259 4.12268 15.8326 4.56509 13.7861 5.42466C11.7396 6.28423 9.88019 7.54411 8.3139 9.13239C5.15064 12.34 3.37354 16.6906 3.37354 21.2269C3.37354 28.7869 8.2145 35.201 14.9109 37.4759C15.7543 37.6127 16.0241 37.0825 16.0241 36.6207V33.7301C11.3518 34.7563 10.3567 31.4381 10.3567 31.4381C9.58076 29.454 8.48438 28.9238 8.48438 28.9238C6.94944 27.8633 8.60245 27.8975 8.60245 27.8975C10.2892 28.0173 11.1832 29.6593 11.1832 29.6593C12.6506 32.2591 15.1302 31.4894 16.0916 31.0789C16.2434 29.9671 16.682 29.2146 17.1543 28.7869C13.4097 28.3593 9.47956 26.8884 9.47956 20.3717C9.47956 18.4731 10.1205 16.9508 11.2169 15.7364C11.0482 15.3088 10.4579 13.53 11.3856 11.2209C11.3856 11.2209 12.8025 10.7591 16.0241 12.9656C17.3567 12.5893 18.8073 12.4011 20.241 12.4011C21.6747 12.4011 23.1253 12.5893 24.4579 12.9656C27.6796 10.7591 29.0964 11.2209 29.0964 11.2209C30.0241 13.53 29.4338 15.3088 29.2651 15.7364C30.3615 16.9508 31.0024 18.4731 31.0024 20.3717C31.0024 26.9055 27.0555 28.3422 23.294 28.7698C23.9012 29.3001 24.4579 30.3434 24.4579 31.9341V36.6207C24.4579 37.0825 24.7278 37.6298 25.588 37.4759C32.2844 35.1839 37.1085 28.7869 37.1085 21.2269C37.1085 18.9807 36.6722 16.7566 35.8245 14.6814C34.9768 12.6062 33.7344 10.7207 32.1681 9.13239C30.6018 7.54411 28.7424 6.28423 26.6959 5.42466C24.6495 4.56509 22.4561 4.12268 20.241 4.12268Z" fill="black"/>
</svg>
