<svg width="42" height="42" viewBox="0 0 42 42" fill="none" xmlns="http://www.w3.org/2000/svg">
<path d="M32.8068 5.83301C33.7015 5.83301 34.5596 6.19342 35.1922 6.83495C35.8249 7.47648 36.1803 8.34659 36.1803 9.25385V33.1997C36.1803 34.107 35.8249 34.9771 35.1922 35.6186C34.5596 36.2602 33.7015 36.6206 32.8068 36.6206H9.19234C8.29764 36.6206 7.43957 36.2602 6.80692 35.6186C6.17427 34.9771 5.81885 34.107 5.81885 33.1997V9.25385C5.81885 8.34659 6.17427 7.47648 6.80692 6.83495C7.43957 6.19342 8.29764 5.83301 9.19234 5.83301H32.8068ZM31.9634 32.3445V23.2793C31.9634 21.8005 31.3841 20.3822 30.3529 19.3365C29.3216 18.2908 27.923 17.7033 26.4646 17.7033C25.0309 17.7033 23.361 18.5927 22.5514 19.9269V18.0283H17.8454V32.3445H22.5514V23.9122C22.5514 22.5951 23.5972 21.5176 24.896 21.5176C25.5222 21.5176 26.1229 21.7698 26.5657 22.2189C27.0086 22.668 27.2574 23.2771 27.2574 23.9122V32.3445H31.9634ZM12.3634 15.3429C13.115 15.3429 13.8358 15.0402 14.3672 14.5013C14.8986 13.9624 15.1972 13.2315 15.1972 12.4694C15.1972 10.8787 13.9321 9.57883 12.3634 9.57883C11.6074 9.57883 10.8823 9.88337 10.3477 10.4255C9.81315 10.9676 9.51282 11.7028 9.51282 12.4694C9.51282 14.0601 10.7948 15.3429 12.3634 15.3429ZM14.708 32.3445V18.0283H10.0357V32.3445H14.708Z" fill="white"/>
</svg>
