<svg width="68" height="69" viewBox="0 0 68 69" fill="none" xmlns="http://www.w3.org/2000/svg">
<g clip-path="url(#clip0_89_748)">
<path d="M18.1595 18.1687L22.9089 23.0472L20.0509 25.8295L15.3016 20.9509L18.1595 18.1687ZM11.7527 31.6005L18.5605 31.6919L18.507 35.6795L11.7006 35.5896L11.7527 31.6005ZM32.8882 14.9604L32.7968 21.7682L28.8106 21.7161L28.9005 14.9069L32.8882 14.9604ZM25.5086 28.5767C25.2221 28.8556 25.0581 29.2369 25.0527 29.6368C25.0474 30.0366 25.2011 30.4222 25.48 30.7087L39.4344 45.0428L31.6157 49.8711L31.6829 50.226L42.7746 51.8303C43.0035 51.8627 43.2367 51.8423 43.4564 51.7707C43.6761 51.6991 43.8766 51.5782 44.0424 51.4172L54.1682 41.5596C54.3943 41.3383 54.5455 41.0517 54.6005 40.7401C54.6555 40.4285 54.6116 40.1074 54.475 39.822L49.5789 29.698C49.4275 29.3862 49.1738 29.1357 48.8601 28.9883C48.5464 28.8409 48.1917 28.8055 47.855 28.8879L39.7327 30.9084C39.4738 30.9733 39.2365 31.1053 39.045 31.2913L34.5309 35.6859L27.6392 28.6067C27.3605 28.3204 26.9796 28.1565 26.5801 28.1508C26.1806 28.1452 25.7952 28.2984 25.5086 28.5767ZM22.622 33.4909C21.6377 32.4405 21.1047 31.0458 21.1378 29.6066C21.1708 28.1674 21.7672 26.7986 22.7987 25.7944C23.8302 24.7902 25.2145 24.2308 26.654 24.2364C28.0936 24.2421 29.4735 24.8122 30.4971 25.8244L34.6066 30.0456L36.2627 28.4333C36.9601 27.7544 37.8268 27.2725 38.7707 27.0355L46.893 25.0178C48.1178 24.7145 49.4095 24.8412 50.5521 25.3767C51.6946 25.9122 52.6184 26.8239 53.1689 27.9593L58.0636 38.0847C58.5652 39.1238 58.7276 40.2942 58.5279 41.4306C58.3281 42.567 57.7763 43.6119 56.9504 44.4176L46.8247 54.2752C46.2209 54.8622 45.4905 55.3029 44.6897 55.5633C43.8889 55.8237 43.039 55.8969 42.2055 55.7772L28.2831 53.764L27.6621 50.4386C27.5239 49.695 27.6138 48.9269 27.9201 48.2353C28.2264 47.5437 28.7347 46.961 29.3783 46.5635L33.107 44.2612L22.622 33.4909Z" fill="black"/>
</g>
<defs>
<clipPath id="clip0_89_748">
<rect width="47.8632" height="47.8632" fill="white" transform="translate(0.316406 34.1479) rotate(-44.231)"/>
</clipPath>
</defs>
</svg>
