<svg width="472" height="440" viewBox="0 0 472 440" fill="none" xmlns="http://www.w3.org/2000/svg">
<path d="M72.0471 118.422C74.3372 119.482 76.622 120.551 78.8823 121.685C80.0868 122.271 81.2904 122.874 82.5296 123.375C89.1467 126.041 95.7996 128.628 102.353 131.46C106.379 133.223 110.388 135.028 114.378 136.877L120.354 139.669L126.299 142.529C127.487 143.14 128.625 143.848 129.701 144.646C130.156 144.952 130.533 145.366 130.8 145.852C131.066 146.339 131.216 146.884 131.236 147.444C131.324 148.993 130.046 149.99 128.298 149.544C127.169 149.226 126.084 148.763 125.069 148.168C122.73 146.857 120.346 145.654 117.916 144.559C115.489 143.455 113.018 142.452 110.503 141.553C109.115 141.055 107.635 140.618 106.413 139.845C102.508 137.381 98.1653 135.83 94.095 133.714C91.0686 132.143 87.9207 130.806 84.8449 129.327L76.6131 125.38C73.8622 124.081 71.1407 122.71 68.3919 121.401C67.3356 120.86 66.3158 120.248 65.3391 119.569C64.4313 118.904 63.5606 118.187 62.7311 117.421C61.9959 116.746 62.3036 116.153 63.4303 116.269C65.0464 116.44 66.6479 116.726 68.2231 117.125C68.8701 117.288 69.5106 117.491 70.1423 117.721C70.7634 117.977 71.3866 118.234 72.0061 118.489L72.0471 118.422Z" fill="#FECCE9"/>
<path d="M118.474 60.2996L120.471 62.8767L122.408 65.5074C123.095 66.4359 123.786 67.3694 124.548 68.233C125.561 69.3878 126.588 70.5297 127.62 71.6671L130.694 75.0964L136.855 81.9385L144.421 90.3821L152.032 98.7839C152.78 99.6569 153.465 100.584 154.083 101.559C154.352 101.948 154.528 102.396 154.598 102.869C154.667 103.341 154.627 103.825 154.482 104.281C154.106 105.548 152.807 105.947 151.53 105.045C150.712 104.44 149.975 103.73 149.336 102.93C146.365 99.3619 143.175 95.9911 139.785 92.8383C138.793 92.0226 137.896 91.093 137.11 90.0675C134.854 86.7429 131.974 83.9636 129.539 80.7998C127.733 78.4486 125.758 76.2273 123.938 73.882C120.708 69.6865 117.521 65.4615 114.486 61.1167C113.316 59.48 112.421 57.6541 111.835 55.7129C111.58 54.8732 112.131 54.4919 112.919 55.0601C114.041 55.8828 115.108 56.7804 116.114 57.7469C116.931 58.562 117.7 59.4263 118.416 60.3354L118.474 60.2996Z" fill="#FECCE9"/>
<path d="M184.371 39.799C184.528 41.6995 184.676 43.6017 184.817 45.5057C184.849 46.5201 184.94 47.5312 185.089 48.5335C185.542 51.1925 186.054 53.8416 186.565 56.4888C187.073 59.1367 187.564 61.7855 188.013 64.4408C188.572 67.7096 189.098 70.9833 189.631 74.2558L191.178 84.0827C191.298 85.0948 191.296 86.1192 191.174 87.1331C191.091 88.1116 190.36 88.8739 189.334 89.4571C187.838 90.3072 186.045 90.0804 185.414 88.8219C185.037 88.0062 184.83 87.1178 184.806 86.2127C184.559 82.13 183.843 78.0955 182.673 74.1925C182.352 73.1086 181.93 71.994 181.998 70.8756C182.199 67.308 181.277 63.9023 181.102 60.3939C180.963 57.7897 180.585 55.208 180.398 52.6073C180.231 50.2885 180.081 47.9689 179.949 45.6484L179.692 38.6736C179.616 36.8546 179.964 35.0393 180.709 33.3788C180.775 33.2066 180.889 33.0579 181.037 32.9517C181.185 32.8455 181.36 32.7868 181.54 32.783C181.72 32.7792 181.896 32.8305 182.046 32.9304C182.197 33.0303 182.314 33.1742 182.383 33.3436C182.91 34.4681 183.37 35.6242 183.762 36.8059C184.009 37.789 184.184 38.7901 184.286 39.8009L184.371 39.799Z" fill="#FECCE9"/>
<path d="M231.92 69.2026C231.746 69.6845 231.59 70.1724 231.387 70.6445L230.772 72.0594C230.543 72.5537 230.355 73.0666 230.209 73.5926C229.869 75.0093 229.58 76.4435 229.217 77.8517C228.868 79.2651 228.512 80.6762 228.107 82.0705C227.61 83.7884 227.085 85.4964 226.504 87.1857L224.764 92.254C224.545 92.7717 224.234 93.2438 223.847 93.646C223.491 94.0622 222.721 94.1454 221.787 94.0387C220.425 93.8833 219.166 93.1307 219.077 92.3349C219.04 91.8456 219.155 91.3556 219.407 90.9354C220.442 89.003 221.094 86.8829 221.327 84.6977C221.397 84.0877 221.382 83.4225 221.755 82.9344C222.928 81.3685 223.189 79.4746 224.024 77.7887C224.654 76.5391 225.018 75.1894 225.611 73.9238C226.658 71.6631 227.65 69.3844 228.774 67.1509C229.225 66.2197 229.947 65.4526 230.838 64.956C230.949 64.8971 231.07 64.8636 231.194 64.8577C231.318 64.8518 231.442 64.8738 231.556 64.922C231.671 64.9703 231.773 65.0436 231.857 65.137C231.94 65.2303 232.002 65.3414 232.039 65.4624C232.095 65.813 232.139 66.1674 232.17 66.5209C232.207 66.8671 232.216 67.2162 232.195 67.5644C232.131 68.1105 232.017 68.6499 231.857 69.1758L231.92 69.2026Z" fill="#FECCE9"/>
<path d="M94.059 193.146C95.2174 192.826 96.3769 192.519 97.5374 192.225C98.1555 192.085 98.7652 191.906 99.3631 191.691C100.929 191.049 102.504 190.424 104.093 189.828C105.684 189.24 107.295 188.713 108.926 188.25C110.937 187.701 112.966 187.214 115.012 186.815C117.057 186.416 119.111 186.074 121.174 185.789C121.817 185.731 122.463 185.785 123.086 185.947C123.697 186.072 124.151 186.712 124.478 187.583C124.953 188.852 124.757 190.298 123.996 190.732C123.51 190.981 122.97 191.099 122.429 191.072C119.985 191.052 117.557 191.53 115.286 192.479C114.653 192.734 114.017 193.092 113.347 193.056C111.198 192.935 109.242 193.815 107.178 194.152C106.41 194.283 105.65 194.456 104.9 194.671C104.146 194.869 103.397 195.091 102.64 195.28C99.9402 195.959 97.2337 196.665 94.5563 197.5C93.4197 197.815 92.2176 197.748 91.1271 197.31C90.5894 197.143 90.387 196.581 90.6738 195.923L91.0206 195.309C91.0699 195.211 91.1375 195.124 91.2194 195.052L91.438 194.838C91.7286 194.558 92.0354 194.296 92.3565 194.054C92.6162 193.862 92.8949 193.698 93.1879 193.566C93.4845 193.449 93.7869 193.344 94.0808 193.221L94.059 193.146Z" fill="#FECCE9"/>
<path d="M301.259 265.13L166.772 184.692M301.259 265.13L329.545 156.777M301.259 265.13L382.772 144.34M301.259 265.13L226.741 173.678M166.772 184.692L182.943 130.27M166.772 184.692L226.741 173.678M329.545 156.777L226.741 173.678M329.545 156.777L264.152 102.13M329.545 156.777L343.536 102.13M329.545 156.777L382.772 144.34M182.943 130.27L226.741 173.678M182.943 130.27L264.152 102.13M226.741 173.678L264.152 102.13M264.152 102.13H343.536M343.536 102.13L382.772 144.34" stroke="#FECCE9" stroke-width="5"/>
<path d="M38.8697 288.255C44.0233 290.833 49.1758 293.952 53.4989 298.267C55.6287 300.428 57.5002 302.828 59.0761 305.418C60.6091 307.966 61.9114 310.645 62.9675 313.423C65.1567 319.262 66.3448 325.303 67.2666 331.223C67.5081 332.692 67.7259 334.16 67.931 335.623L68.5213 340.004L63.1443 340.67C62.2822 333.779 61.6069 326.698 62.1986 319.515C62.762 312.363 64.6498 305.075 68.4796 298.692C69.4408 297.087 70.5225 295.557 71.7155 294.115C72.9117 292.645 74.2409 291.289 75.6864 290.062C76.0384 289.739 76.421 289.459 76.7954 289.167C77.1749 288.883 77.5401 288.574 77.9333 288.312C78.7173 287.782 79.495 287.236 80.3158 286.776C81.926 285.822 83.6043 284.987 85.3373 284.278C87.039 283.577 88.7785 282.971 90.5477 282.462C92.2998 281.975 94.059 281.525 95.8133 281.172C99.3258 280.43 102.816 279.929 106.257 279.437L106.596 285.93L103.53 285.864C100.198 285.802 96.8354 285.624 93.4471 285.352C89.9788 285.104 86.5341 284.597 83.1421 283.835C79.566 283.04 76.1393 281.684 72.9898 279.82C71.3628 278.819 69.8585 277.633 68.5076 276.285C67.1621 274.93 65.991 273.414 65.0211 271.771C63.1053 268.562 61.9303 265.204 60.926 261.974C59.9119 258.724 59.0673 255.425 58.3956 252.088C57.7071 248.757 57.2154 245.389 56.9229 242C56.782 240.307 56.6723 238.611 56.6192 236.914L56.5801 235.642C56.57 235.218 56.5808 234.793 56.545 234.369C56.496 233.521 56.4854 232.672 56.4542 231.824L62.2358 232.096C61.7498 238.29 61.2299 244.59 60.031 250.921C59.8675 251.711 59.7179 252.504 59.5414 253.292L58.9484 255.652L58.271 258.003L57.5006 260.339C56.4088 263.476 55.0151 266.5 53.339 269.371C50.0979 274.796 45.6525 279.411 40.3435 282.861C38.2909 284.236 36.0454 285.3 33.6799 286.019C32.8161 286.265 31.9339 286.442 31.0418 286.549C30.6442 286.592 30.2696 286.62 29.9178 286.633L29.658 286.641L29.4478 286.615C29.3002 286.595 29.1578 286.575 29.0206 286.557C27.3197 286.309 26.3753 286.015 27.6858 284.732C27.8753 284.554 28.0758 284.388 28.286 284.234C28.3959 284.149 28.5512 284.053 28.6503 283.972C28.7424 283.896 28.8386 283.816 28.9388 283.732C29.3396 283.401 29.8238 283.078 30.3583 282.695C30.8883 282.303 31.5044 281.931 32.1513 281.47C32.4796 281.252 32.8226 281.024 33.1803 280.787C33.5312 280.539 33.8984 280.288 34.2821 280.033C36.2674 278.677 38.1615 277.194 39.9521 275.592C41.7809 273.981 43.4823 272.233 45.0412 270.362C47.1659 267.782 48.9518 264.943 50.3557 261.914C51.775 258.82 52.9041 255.602 53.7288 252.301C55.499 245.649 56.2994 238.652 57.0506 231.599L57.0511 231.595C57.1135 231.011 57.398 230.472 57.8462 230.09C58.2945 229.708 58.8725 229.511 59.462 229.539C60.0515 229.567 60.6079 229.819 61.0171 230.242C61.4263 230.666 61.6574 231.229 61.6631 231.816C61.6737 232.96 61.6356 234.107 61.7162 235.25C61.789 236.393 61.8754 237.534 61.9916 238.673C62.2137 240.95 62.5438 243.214 62.9206 245.467C63.6662 249.968 64.7589 254.406 66.189 258.74C67.1038 261.704 68.292 264.578 69.7385 267.324C70.4189 268.565 71.221 269.736 72.133 270.82C73.0229 271.839 74.0088 272.77 75.0771 273.601C76.0797 274.348 77.1442 275.009 78.2592 275.577C79.4255 276.149 80.6294 276.641 81.8625 277.051C84.4431 277.871 87.0951 278.449 89.7838 278.777C95.2908 279.491 101.014 279.595 106.771 279.806L106.805 279.808C107.526 279.834 108.211 280.129 108.723 280.635C109.236 281.141 109.539 281.82 109.572 282.538C109.605 283.255 109.367 283.959 108.903 284.51C108.439 285.06 107.785 285.417 107.069 285.51C102.698 286.075 98.398 286.666 94.2652 287.624C90.1495 288.604 86.1639 289.887 82.6444 291.902C81.1431 292.756 79.7256 293.748 78.4103 294.865C77.1032 296.008 75.9058 297.269 74.8336 298.632C72.6932 301.452 71.0106 304.589 69.847 307.928C68.6561 311.316 67.8879 314.837 67.5597 318.412C67.2183 322.046 67.1425 325.7 67.3327 329.344C67.4854 332.892 67.8479 336.461 68.2684 340.043L68.2711 340.067C68.3463 340.709 68.1627 341.355 67.7604 341.863C67.3582 342.371 66.7701 342.699 66.1251 342.776C65.4801 342.853 64.8309 342.672 64.3198 342.272C63.8086 341.873 63.4772 341.289 63.3983 340.647C62.6921 334.894 61.9467 329.191 60.611 323.692C59.9835 320.956 59.1817 318.262 58.2104 315.627C57.2408 313.039 56.0287 310.547 54.5901 308.185C54.2126 307.614 53.8619 307.021 53.4647 306.465L52.2373 304.823C51.374 303.766 50.4559 302.756 49.4868 301.794C47.4811 299.88 45.283 298.177 42.9273 296.711C41.7411 295.961 40.5182 295.254 39.2691 294.58C38.6447 294.243 38.0142 293.914 37.3776 293.593L36.4189 293.115L35.9396 292.881L35.4843 292.678C34.8903 292.394 34.2385 292.164 33.6053 291.915C32.9465 291.701 32.3024 291.458 31.6262 291.274C30.2949 290.862 28.9202 290.549 27.5464 290.252C24.8819 289.699 22.1785 289.352 19.4603 289.213C16.8257 289.084 14.226 289.238 12.0653 289.983L11.4442 287.523L11.4422 287.361H11.4447H11.4599H11.4802H11.5209L11.6023 287.361C11.6551 287.362 11.7092 287.363 11.7852 287.36L12.2057 287.346L13.0609 287.311C13.6345 287.285 14.2048 287.26 14.7719 287.235C15.9104 287.19 17.0351 287.145 18.1458 287.101C20.3709 287.021 22.5433 286.973 24.6658 286.928C25.388 286.901 26.1112 286.929 26.829 287.012C27.1074 287.035 27.2738 287.118 27.5306 287.117C27.6977 287.113 27.8623 287.159 28.0023 287.25L28.4237 286.76C28.3641 286.984 28.2817 287.082 28.321 287.102C28.3478 287.122 28.4941 287.059 28.6279 286.845C28.644 286.82 28.6543 286.791 28.6579 286.761C28.6615 286.73 28.6584 286.7 28.6488 286.671C28.6392 286.642 28.6233 286.616 28.6023 286.594C28.5813 286.572 28.5556 286.555 28.5272 286.544C28.4988 286.533 28.4683 286.529 28.438 286.531C28.4076 286.533 28.3781 286.542 28.3515 286.557C28.325 286.572 28.3021 286.592 28.2845 286.617C28.2668 286.642 28.2549 286.67 28.2495 286.7L28.1182 287.438C28.0938 287.575 27.9087 287.783 27.5649 288.015C27.3263 288.209 27.0664 288.375 26.7903 288.51C25.9391 288.925 25.0414 289.237 24.1161 289.439C22.1117 289.898 20.0929 290.304 18.0442 290.69C17.0205 290.882 15.9896 291.067 14.9516 291.245L13.3807 291.504L12.5734 291.627L12.1531 291.687C11.9953 291.707 11.7593 291.728 11.5653 291.745C10.8702 291.804 10.1762 291.62 9.60336 291.224C9.03053 290.827 8.615 290.244 8.42877 289.575C8.24255 288.905 8.29736 288.192 8.58371 287.559C8.87006 286.926 9.36991 286.412 9.99665 286.107L10.197 286.011C11.8114 285.263 13.5262 284.752 15.2879 284.494C16.1039 284.396 16.9363 284.269 17.7365 284.24C18.1395 284.218 18.5467 284.185 18.947 284.174L20.1419 284.165C23.3125 284.196 26.4708 284.564 29.5633 285.261C31.1258 285.597 32.6705 286.01 34.1916 286.5L35.3453 286.883L36.504 287.322C36.8873 287.458 37.2819 287.644 37.6714 287.812L38.2562 288.07L38.7773 288.32C38.8073 288.298 38.8355 288.277 38.8697 288.255Z" fill="#FECCE9"/>
<path d="M175.864 301.566C178.551 304.774 180.718 308.38 182.286 312.254C182.478 312.739 182.685 313.217 182.862 313.707L183.334 315.202C183.484 315.702 183.66 316.193 183.785 316.699L184.131 318.229C184.237 318.741 184.38 319.243 184.451 319.762L184.665 321.316L184.769 322.093C184.805 322.349 184.84 322.608 184.858 322.893C184.901 323.452 184.922 324.029 184.907 324.63C184.893 325.71 184.717 326.782 184.384 327.811C184.177 328.41 183.901 328.983 183.561 329.518C183.181 330.088 182.722 330.602 182.196 331.042L182.158 331.073C181.723 331.437 181.187 331.661 180.621 331.716C180.056 331.772 179.486 331.655 178.988 331.382C178.49 331.11 178.087 330.693 177.831 330.188C177.574 329.683 177.478 329.112 177.553 328.551C177.906 325.953 178.406 323.376 179.052 320.834C180.103 316.583 181.732 312.496 183.893 308.684C186.108 304.787 189.002 301.314 192.44 298.427C195.96 295.532 200.026 293.365 204.398 292.055C208.89 290.726 213.638 290.504 218.235 291.408C218.911 291.547 219.526 291.891 219.996 292.393C220.466 292.895 220.768 293.53 220.86 294.21C220.952 294.89 220.83 295.582 220.51 296.19C220.19 296.798 219.688 297.292 219.074 297.604L219.013 297.634C217.517 298.37 215.913 298.867 214.262 299.107C212.744 299.319 211.208 299.38 209.678 299.289C208.211 299.216 206.814 299.043 205.471 298.851C204.131 298.655 202.853 298.465 201.465 298.212C199.47 297.878 197.517 297.328 195.641 296.572C194.614 296.143 193.632 295.614 192.71 294.993C191.768 294.353 190.898 293.613 190.116 292.787C188.664 291.203 187.478 289.397 186.603 287.437C185.792 285.627 185.156 283.744 184.702 281.815C182.872 274.336 183.027 266.513 185.151 259.112L185.154 259.101C185.34 258.456 185.711 257.88 186.222 257.442C186.733 257.005 187.362 256.725 188.03 256.639C188.699 256.553 189.378 256.663 189.984 256.956C190.59 257.249 191.097 257.712 191.443 258.289C192.525 260.161 193.111 262.276 193.145 264.436C193.18 266.329 192.944 268.218 192.446 270.045C192.225 270.927 191.939 271.742 191.667 272.566C191.363 273.379 191.066 274.196 190.705 274.984C190.016 276.572 189.208 278.107 188.288 279.575C184.631 285.503 179.33 290.251 173.024 293.248C169.012 295.12 164.656 296.149 160.227 296.27C158.489 296.33 156.754 296.093 155.096 295.568C154.76 295.456 154.446 295.341 154.153 295.219C153.861 295.085 153.589 294.948 153.339 294.809C152.88 294.565 152.453 294.265 152.068 293.917C151.056 293.009 151.248 292.277 152.254 291.799C153.264 291.331 155.089 291.084 157.568 290.836L158.755 290.709L159.957 290.549C160.761 290.427 161.576 290.325 162.388 290.173C164.008 289.888 165.61 289.507 167.184 289.032C170.223 288.091 173.075 286.635 175.617 284.728C180.752 280.885 184.482 275.473 186.236 269.319C186.655 267.917 186.868 266.462 186.868 265C186.886 263.792 186.561 262.605 185.929 261.574L191.33 260.867C190.78 263.044 190.436 265.267 190.303 267.508C190.046 271.646 190.613 275.9 191.328 279.81C191.824 282.595 192.692 285.233 194.103 287.26C194.768 288.235 195.61 289.077 196.585 289.744C197.65 290.418 198.809 290.929 200.025 291.262C201.412 291.644 202.821 291.942 204.244 292.155C205.76 292.399 207.268 292.644 208.688 292.788C211.545 293.094 214.176 292.978 216.187 291.997L216.882 297.563L215.885 297.375L215.387 297.277L214.881 297.218L213.87 297.096L212.848 297.044C210.525 296.957 208.202 297.227 205.963 297.848C203.682 298.485 201.496 299.417 199.46 300.622C197.411 301.828 195.519 303.282 193.829 304.95C192.122 306.644 190.605 308.519 189.307 310.54C185.742 316.024 183.639 322.519 182.766 329.156L178.821 327.04C179.057 326.842 179.235 326.586 179.337 326.297C179.501 325.847 179.594 325.375 179.614 324.897C179.645 324.302 179.63 323.706 179.567 323.115L179.283 321.135C179.186 320.474 179.052 319.818 178.881 319.172L178.655 318.193C178.587 317.865 178.458 317.553 178.362 317.231C178.149 316.595 177.967 315.947 177.73 315.317L176.956 313.45C175.833 310.983 174.438 308.648 172.796 306.49C171.114 304.345 169.211 302.382 167.118 300.634C164.474 298.481 161.597 296.631 158.539 295.117C158.355 295.021 158.175 294.918 157.99 294.827L157.426 294.58L156.305 294.075C155.569 293.703 154.803 293.456 154.052 293.155L152.926 292.707C152.558 292.576 152.192 292.457 151.825 292.364C151.099 292.139 150.322 292.136 149.595 292.354C149.416 292.422 149.255 292.506 149.127 292.563C149.124 292.564 149.122 292.566 149.12 292.568C149.118 292.57 149.116 292.573 149.115 292.575L149.1 292.617C149.052 292.766 149.062 292.927 149.129 293.069C149.189 293.2 149.276 293.316 149.383 293.412C149.577 293.584 149.819 293.693 150.077 293.723C150.199 293.739 150.323 293.73 150.44 293.695C150.546 293.675 150.65 293.647 150.751 293.612C150.922 293.547 151.047 293.507 151.117 293.552C151.186 293.594 151.206 293.728 151.105 293.956C151.031 294.096 150.933 294.221 150.815 294.326C150.673 294.495 150.489 294.623 150.281 294.697C149.781 294.898 149.227 294.916 148.716 294.747C148.338 294.622 147.998 294.403 147.731 294.109C147.539 293.896 147.388 293.649 147.284 293.382C147.165 293.066 147.111 292.728 147.126 292.391C147.135 292.134 147.219 291.886 147.367 291.676L147.737 291.148C147.932 290.87 148.159 290.616 148.415 290.393C148.558 290.269 148.709 290.155 148.869 290.053C149.039 289.958 149.215 289.874 149.396 289.804C150.252 289.48 151.164 289.323 152.08 289.341C152.796 289.344 153.51 289.407 154.215 289.528L156.155 289.835L156.643 289.919L157.121 290.039L158.081 290.285C160.668 290.955 163.166 291.927 165.524 293.181C169.418 295.352 172.887 298.204 175.763 301.602C175.796 301.59 175.826 301.579 175.864 301.566Z" fill="#FECCE9"/>
<path d="M112.26 370.864L114.303 372.003L116.269 373.272L116.758 373.592L117.227 373.942L118.164 374.644C118.475 374.88 118.791 375.109 119.096 375.352L119.983 376.117C121.171 377.133 122.3 378.214 123.366 379.355L124.898 381.125C125.4 381.722 125.842 382.363 126.314 382.981C128.125 385.495 129.66 388.196 130.893 391.035C132.086 393.872 132.991 396.82 133.593 399.836C133.73 400.638 133.897 401.435 134.001 402.242L134.271 404.668L134.39 407.108C134.432 407.921 134.378 408.737 134.376 409.551C134.269 412.811 133.803 416.05 132.985 419.21L132.345 421.433C132.161 422.071 131.751 422.622 131.192 422.984C130.632 423.346 129.96 423.494 129.299 423.402C128.638 423.31 128.033 422.983 127.595 422.481C127.157 421.98 126.916 421.338 126.915 420.674L126.916 420.545C126.923 413.372 126.907 405.974 128.292 398.544C128.973 394.784 130.086 391.114 131.61 387.607C133.167 384.002 135.302 380.674 137.931 377.751C140.627 374.856 143.795 372.436 147.301 370.591C150.704 368.822 154.283 367.414 157.981 366.388C159.799 365.872 161.621 365.43 163.45 365.039C165.284 364.653 167.162 364.313 169.102 364.102C171.084 363.869 173.084 363.81 175.077 363.926C177.168 364.049 179.235 364.438 181.226 365.084C181.882 365.297 182.457 365.707 182.871 366.257C183.284 366.807 183.518 367.47 183.538 368.157C183.559 368.844 183.366 369.521 182.987 370.095C182.607 370.669 182.058 371.112 181.416 371.364L181.344 371.392C178.208 372.554 174.893 373.161 171.547 373.186C167.997 373.208 164.451 372.927 160.949 372.347C157.476 371.867 154.038 371.166 150.656 370.248C148.908 369.766 147.192 369.178 145.516 368.488C143.79 367.79 142.124 366.953 140.536 365.983C138.907 364.993 137.378 363.849 135.971 362.565C134.571 361.274 133.303 359.848 132.187 358.307C130.065 355.329 128.343 352.087 127.063 348.665C124.546 342.092 122.992 335.192 122.447 328.177C122.384 327.303 122.329 326.427 122.299 325.55C122.279 325.112 122.265 324.674 122.259 324.235C122.252 323.793 122.236 323.384 122.246 322.846C122.245 321.664 122.421 320.489 122.766 319.359C123.003 318.612 123.357 317.906 123.814 317.269C124.36 316.516 125.066 315.891 125.883 315.44L125.917 315.421C126.316 315.204 126.755 315.068 127.207 315.02C127.659 314.971 128.117 315.012 128.553 315.14C128.989 315.268 129.396 315.48 129.75 315.765C130.104 316.049 130.398 316.4 130.616 316.797C130.85 317.228 130.991 317.703 131.029 318.191C132.051 332.166 128.428 346.088 120.719 357.81C118.924 360.534 116.796 363.026 114.385 365.227C113.15 366.339 111.827 367.349 110.429 368.248C109.025 369.152 107.54 369.925 105.993 370.555C103.539 371.592 100.882 372.064 98.2188 371.936C96.5117 371.873 94.8449 371.403 93.359 370.564C91.7606 369.55 92.0771 368.851 93.4693 368.525C94.1771 368.321 95.166 368.195 96.4083 367.959C97.9094 367.68 99.3908 367.305 100.843 366.835C103.072 366.085 105.18 365.015 107.099 363.66C109.097 362.236 110.921 360.586 112.536 358.743C114.867 356.049 116.869 353.088 118.499 349.923C120.187 346.746 121.559 343.411 122.594 339.968C124.679 333.079 125.425 325.857 124.793 318.69L128.911 320.891C128.912 320.894 128.919 320.902 128.912 320.893L128.897 320.871C128.9 320.875 128.903 320.879 128.906 320.883C128.914 320.894 128.923 320.902 128.918 320.896V320.905C128.895 320.938 128.875 320.974 128.859 321.012C128.752 321.264 128.683 321.531 128.653 321.803C128.599 322.23 128.577 322.66 128.589 323.091L128.65 324.721C128.763 326.937 128.999 329.144 129.321 331.336C129.984 335.713 131.093 340.012 132.63 344.166C133.691 347.116 135.076 349.94 136.759 352.588C137.563 353.833 138.464 355.013 139.453 356.117C139.93 356.648 140.433 357.155 140.96 357.636C141.227 357.871 141.475 358.123 141.748 358.349L142.567 359.025C145.023 360.898 147.775 362.351 150.71 363.324C153.815 364.369 157.003 365.154 160.24 365.668C163.483 366.269 166.765 366.644 170.061 366.79C173.122 366.938 176.183 366.496 179.075 365.489L179.18 371.067C176.316 370.097 173.081 369.939 169.758 370.272C168.096 370.428 166.409 370.702 164.704 371.029C162.997 371.361 161.301 371.734 159.635 372.164C156.063 373.039 152.618 374.361 149.38 376.097C146.232 377.779 143.44 380.049 141.157 382.783C138.894 385.591 137.107 388.748 135.865 392.129C134.585 395.591 133.691 399.182 133.199 402.839C132.374 408.597 132.286 414.546 132.209 420.574L127.32 419.775C130.577 410.218 129.441 399.203 124.568 390.243C124.249 389.691 123.966 389.116 123.619 388.581L122.577 386.977C122.223 386.447 121.817 385.955 121.44 385.441C121.245 385.189 121.064 384.924 120.857 384.683L120.228 383.964C119.394 383 118.511 382.079 117.583 381.204C116.61 380.377 115.667 379.51 114.612 378.778C114.107 378.383 113.581 378.014 113.038 377.673C112.494 377.332 111.964 376.969 111.41 376.643L109.719 375.712C109.16 375.393 108.558 375.155 107.98 374.871C105.635 373.785 103.184 372.945 100.665 372.364C94.6621 370.961 88.4289 370.84 82.3761 372.01L82.3128 369.618C85.9374 370.716 89.7419 371.1 93.5141 370.749C95.6551 370.549 96.742 370.491 96.733 370.95C96.7187 371.153 96.4358 371.504 95.8262 371.903C95.4563 372.146 95.0693 372.361 94.668 372.548C94.4336 372.661 94.1779 372.776 93.8986 372.883C93.759 372.937 93.6154 372.998 93.464 373.047C93.3113 373.091 93.1535 373.134 92.9906 373.177C89.2075 374.167 85.2552 374.337 81.4004 373.677C80.7624 373.565 80.1801 373.244 79.7464 372.765C79.3127 372.286 79.0525 371.677 79.0071 371.033C78.9618 370.39 79.1339 369.75 79.4962 369.215C79.8585 368.681 80.39 368.282 81.0061 368.083L81.2506 368.005C85.0801 366.79 89.076 366.173 93.0955 366.177C96.3962 366.168 99.684 366.586 102.876 367.423C106.09 368.251 109.204 369.425 112.162 370.925C112.194 370.903 112.223 370.884 112.26 370.864Z" fill="#FECCE9"/>
</svg>
