<svg width="88" height="88" viewBox="0 0 88 88" fill="none" xmlns="http://www.w3.org/2000/svg">
<path d="M17.3981 49.0002C18.3457 49.4386 19.2911 49.8812 20.2264 50.3502C20.7247 50.5927 21.2228 50.8424 21.7355 51.0496C24.4735 52.1529 27.2264 53.2233 29.938 54.3949C31.604 55.1243 33.2625 55.8715 34.9136 56.6364L37.3865 57.7915L39.8464 58.975C40.338 59.2278 40.8087 59.5207 41.254 59.8509C41.4423 59.9777 41.5981 60.1488 41.7085 60.3502C41.8189 60.5515 41.8807 60.7772 41.8889 61.0088C41.9253 61.6496 41.3968 62.0623 40.6736 61.8778C40.2062 61.746 39.7572 61.5546 39.3372 61.3082C38.3697 60.7659 37.3832 60.2682 36.3776 59.815C35.3735 59.3581 34.3511 58.9434 33.3102 58.5711C32.7358 58.3651 32.1235 58.1843 31.618 57.8646C30.0022 56.8451 28.2052 56.2031 26.521 55.3275C25.2688 54.6776 23.9662 54.1242 22.6935 53.5125L19.2874 51.8794C18.1492 51.3418 17.0231 50.7744 15.8857 50.2328C15.4486 50.009 15.0266 49.7558 14.6225 49.4749C14.2469 49.1994 13.8866 48.9027 13.5434 48.5862C13.2392 48.3069 13.3665 48.0612 13.8327 48.1094C14.5014 48.1799 15.164 48.2983 15.8158 48.4636C16.0836 48.5311 16.3486 48.6149 16.61 48.7101C16.8669 48.816 17.1248 48.9223 17.3812 49.028L17.3981 49.0002Z" fill="#B1E8F0"/>
<path d="M36.6086 24.9506L37.4347 26.017L38.2363 27.1055C38.5207 27.4897 38.8064 27.8759 39.1216 28.2333C39.5409 28.7111 39.966 29.1836 40.3929 29.6542L41.665 31.0732L44.2143 33.9043L47.3446 37.3981L50.494 40.8745C50.8035 41.2357 51.0871 41.6194 51.3426 42.0227C51.454 42.1835 51.5269 42.3692 51.5556 42.5647C51.5842 42.7603 51.5678 42.9604 51.5076 43.1491C51.3523 43.6734 50.8148 43.8383 50.2863 43.4651C49.948 43.215 49.6429 42.9209 49.3786 42.5903C48.1492 41.1137 46.8293 39.7189 45.4267 38.4143C45.0161 38.0769 44.6447 37.6922 44.3198 37.2679C43.3861 35.8922 42.1946 34.7422 41.1871 33.4331C40.4397 32.4602 39.6226 31.5411 38.8695 30.5707C37.533 28.8347 36.2142 27.0865 34.9583 25.2887C34.4743 24.6115 34.1038 23.856 33.8615 23.0527C33.7559 22.7053 33.9841 22.5475 34.31 22.7826C34.7742 23.1231 35.2158 23.4944 35.6322 23.8944C35.9701 24.2316 36.2881 24.5893 36.5844 24.9654L36.6086 24.9506Z" fill="#B1E8F0"/>
<path d="M63.875 16.4677C63.9399 17.2541 64.0013 18.0412 64.0594 18.829C64.0726 19.2488 64.1102 19.6671 64.172 20.0818C64.3597 21.1821 64.5712 22.2782 64.7828 23.3736C64.993 24.4692 65.1961 25.5653 65.3818 26.664C65.6134 28.0165 65.831 29.3711 66.0516 30.7251L66.6915 34.7913C66.741 35.2101 66.7405 35.6339 66.6898 36.0535C66.6555 36.4584 66.3533 36.7738 65.9285 37.0151C65.3096 37.3668 64.5676 37.273 64.3066 36.7523C64.1505 36.4148 64.0648 36.0471 64.055 35.6726C63.9527 33.9833 63.6564 32.3139 63.1724 30.699C63.0398 30.2505 62.8651 29.7893 62.8931 29.3265C62.9764 27.8503 62.5947 26.4411 62.5222 24.9894C62.4648 23.9119 62.3086 22.8436 62.2311 21.7675C62.1619 20.8081 62.1 19.8482 62.0454 18.8881L61.9391 16.0021C61.9074 15.2494 62.0517 14.4983 62.3599 13.8112C62.387 13.74 62.4342 13.6784 62.4954 13.6345C62.5566 13.5906 62.6291 13.5662 62.7035 13.5647C62.7779 13.5631 62.8509 13.5843 62.9131 13.6257C62.9753 13.667 63.0239 13.7265 63.0526 13.7966C63.2704 14.2619 63.4608 14.7403 63.623 15.2292C63.725 15.636 63.7975 16.0503 63.8399 16.4685L63.875 16.4677Z" fill="#B1E8F0"/>
<path d="M83.5499 28.6342C83.4778 28.8336 83.413 29.0355 83.329 29.2308L83.0749 29.8163C82.98 30.0208 82.902 30.233 82.8417 30.4507C82.701 31.0369 82.5816 31.6303 82.4311 32.213C82.2871 32.7978 82.1398 33.3817 81.9721 33.9586C81.7665 34.6695 81.5491 35.3762 81.3089 36.0752L80.5888 38.1723C80.4982 38.3865 80.3696 38.5819 80.2094 38.7483C80.0621 38.9205 79.7435 38.9549 79.3568 38.9108C78.7933 38.8465 78.2726 38.5351 78.2356 38.2058C78.2202 38.0034 78.268 37.8006 78.3722 37.6267C78.8004 36.8271 79.0704 35.9499 79.1664 35.0457C79.1954 34.7933 79.1894 34.5181 79.3439 34.3161C79.829 33.6682 79.9369 32.8845 80.2826 32.1869C80.5433 31.6699 80.6938 31.1114 80.9392 30.5877C81.3725 29.6523 81.783 28.7094 82.248 27.7853C82.4347 27.3999 82.7332 27.0825 83.1022 26.8771C83.1479 26.8527 83.1982 26.8388 83.2495 26.8364C83.3008 26.8339 83.3519 26.843 83.3993 26.863C83.4466 26.883 83.489 26.9133 83.5235 26.9519C83.558 26.9906 83.5838 27.0365 83.5991 27.0866C83.6222 27.2317 83.6403 27.3783 83.6531 27.5246C83.6686 27.6678 83.672 27.8123 83.6635 27.9563C83.6369 28.1823 83.5901 28.4055 83.5238 28.6231L83.5499 28.6342Z" fill="#B1E8F0"/>
<path d="M26.5061 79.919C26.9854 79.7867 27.4652 79.6597 27.9454 79.538C28.2012 79.48 28.4535 79.4063 28.7008 79.3173C29.3488 79.0517 30.0007 78.7929 30.658 78.5465C31.3162 78.3029 31.9827 78.0851 32.6576 77.8933C33.49 77.6663 34.3295 77.4647 35.1758 77.2998C36.022 77.1346 36.8719 76.993 37.7257 76.8752C37.9916 76.8512 38.2591 76.8733 38.517 76.9406C38.7697 76.9923 38.9577 77.2569 39.0929 77.6172C39.2894 78.1423 39.2083 78.7408 38.8935 78.9202C38.6923 79.0235 38.4689 79.0721 38.245 79.0611C37.2336 79.0528 36.229 79.2507 35.2895 79.6431C35.0275 79.7488 34.7643 79.8968 34.4871 79.8821C33.5978 79.8318 32.7884 80.1959 31.9344 80.3357C31.6168 80.3897 31.3021 80.4613 30.9918 80.5502C30.6797 80.6322 30.3701 80.724 30.0567 80.8024C28.9396 81.0831 27.8197 81.3754 26.7119 81.7208C26.2416 81.851 25.7442 81.8234 25.293 81.6422C25.0705 81.5731 24.9867 81.3404 25.1054 81.0684L25.2489 80.8144C25.2693 80.7738 25.2973 80.7376 25.3312 80.7079L25.4216 80.6194C25.5419 80.5036 25.6688 80.3952 25.8017 80.2949C25.9091 80.2154 26.0244 80.1478 26.1457 80.0931C26.2684 80.0444 26.3935 80.001 26.5152 79.9503L26.5061 79.919Z" fill="#B1E8F0"/>
</svg>
