<svg width="33" height="56" viewBox="0 0 33 56" fill="none" xmlns="http://www.w3.org/2000/svg">
<path d="M3.4317 55.1223C1.19467 54.6555 0.939267 54.4735 0.730632 53.3101C0.530204 52.3029 0.883445 51.5399 2.41314 49.7738C5.93205 45.6296 9.09219 44.9503 6.01044 48.9927C5.08938 50.1778 4.50536 51.2273 4.6586 51.3365C5.22047 51.737 10.9278 49.9416 14.1878 48.3564C23.778 43.7285 30.0517 34.933 27.9299 29.1741C27.194 27.3343 26.4564 26.3951 25.7209 26.4347C25.4758 26.4479 24.5709 27.0057 23.7233 27.717C19.7547 30.7891 14.4456 31.7408 12.5698 29.7274C11.2171 28.3124 13.0834 24.5313 15.943 22.811C17.7568 21.7736 20.6882 21.4199 23.2746 21.9854L25.5627 22.4886L27.082 19.5876C29.9918 14.1449 30.5647 9.14132 28.8089 4.73307C28.3551 3.58286 27.934 2.11765 27.8991 1.45389L27.8866 0.279916L28.8653 1.12776C30.1015 2.19667 31.3809 5.02522 31.9822 8.04693C32.5855 11.1077 31.5652 16.0179 29.3906 20.4812L27.6591 24.0202L29.0875 25.9401C34.8624 33.8516 25.9217 47.0978 11.8924 51.4559C10.152 52.0195 8.41161 52.5831 8.02349 52.6823C7.53936 52.8258 7.80092 53.125 8.95728 53.6109C9.86236 53.9928 10.5284 54.5051 10.3957 54.7864C10.1405 55.544 6.16722 55.7189 3.4317 55.1223ZM21.1164 26.7611C23.4 25.3068 23.5387 24.203 21.5059 23.8818C19.2751 23.5321 16.4889 24.7785 15.4556 26.6353C14.3754 28.5338 14.3754 28.5338 15.4622 28.6319C16.7983 28.7948 19.0718 28.085 21.1164 26.7611Z" fill="#92DDEA"/>
</svg>
